#tb 0: 1/44100
#media_type 0: audio
#codec_id 0: pcm_s16le
#sample_rate 0: 44100
#channel_layout_name 0: 5.1
0,          0,          0,     4096,    49152, 0xdb5f9e0b
0,       4096,       4096,     4096,    49152, 0x3db7b2bc
0,       8192,       8192,     4096,    49152, 0xb616901f
0,      12288,      12288,     4096,    49152, 0x9b9398b3
0,      16384,      16384,     4096,    49152, 0x70d7a951
0,      20480,      20480,     4096,    49152, 0x21ae8763
0,      24576,      24576,     4096,    49152, 0x6dc290ae
0,      28672,      28672,     4096,    49152, 0xe16e978d
0,      32768,      32768,     4096,    49152, 0xfda4c520
0,      36864,      36864,     4096,    49152, 0xca0aac52
0,      40960,      40960,     4096,    49152, 0x204685c8
0,      45056,      45056,     4096,    49152, 0xfa24b98a
0,      49152,      49152,     4096,    49152, 0x5eb4b3b7
0,      53248,      53248,     4096,    49152, 0x5483f62d
0,      57344,      57344,     4096,    49152, 0x8dde2003
0,      61440,      61440,     4096,    49152, 0xceb2e987
0,      65536,      65536,     4096,    49152, 0x99b684ca
0,      69632,      69632,     4096,    49152, 0x36152028
0,      73728,      73728,     4096,    49152, 0x4a60a39a
0,      77824,      77824,     4096,    49152, 0x92f67739
0,      81920,      81920,     4096,    49152, 0x4fcad993
0,      86016,      86016,     4096,    49152, 0x95a96597
0,      90112,      90112,     4096,    49152, 0x874e9656
0,      94208,      94208,     4096,    49152, 0xeb6f2705
0,      98304,      98304,     4096,    49152, 0xe56c56b2
0,     102400,     102400,     4096,    49152, 0x4bc7af12
0,     106496,     106496,     4096,    49152, 0x43033e59
0,     110592,     110592,     4096,    49152, 0xeaf97139
0,     114688,     114688,     4096,    49152, 0x89987787
0,     118784,     118784,     4096,    49152, 0xa4c58c55
0,     122880,     122880,     4096,    49152, 0x340d7319
0,     126976,     126976,     4096,    49152, 0xcfbc9a55
0,     131072,     131072,     4096,    49152, 0x5fa26b28
0,     135168,     135168,     4096,    49152, 0x30457e7c
0,     139264,     139264,     4096,    49152, 0xf9267cd0
0,     143360,     143360,     4096,    49152, 0xe841967e
0,     147456,     147456,     4096,    49152, 0x292e8be5
0,     151552,     151552,     4096,    49152, 0xa4fcc3c2
0,     155648,     155648,     4096,    49152, 0x7e06524d
0,     159744,     159744,     4096,    49152, 0x4e05968b
0,     163840,     163840,     4096,    49152, 0x22a547cd
0,     167936,     167936,     4096,    49152, 0x61db8f0d
0,     172032,     172032,     4096,    49152, 0xf4c3b60e
0,     176128,     176128,     4096,    49152, 0xb72f6e40
0,     180224,     180224,     4096,    49152, 0x89695b66
0,     184320,     184320,     4096,    49152, 0x89ceda35
0,     188416,     188416,     4096,    49152, 0x95c00a25
0,     192512,     192512,     4096,    49152, 0x46712b0d
0,     196608,     196608,     4096,    49152, 0x9b9c418c
0,     200704,     200704,     4096,    49152, 0x85b55827
0,     204800,     204800,     4096,    49152, 0x8f960c12
0,     208896,     208896,     4096,    49152, 0x30424d90
0,     212992,     212992,     4096,    49152, 0x24445f78
0,     217088,     217088,     4096,    49152, 0x8bb5562f
0,     221184,     221184,     4096,    49152, 0x2ebacba9
0,     225280,     225280,     4096,    49152, 0xddb78fce
0,     229376,     229376,     4096,    49152, 0x7ad709d9
0,     233472,     233472,     4096,    49152, 0x6c2762b1
0,     237568,     237568,     4096,    49152, 0x2a80aec8
0,     241664,     241664,      886,    10632, 0x2e3e906c
